# xmcd
#
# Track frame offsets:
#	150
#	33450
#	54600
#	72602
#	98250
#	123675
#	151128
#	175050
# Disc length: 2615 seconds
# Revision: 1
# Processed by: cddbd v1.5.1PL2 Copyright (c) Steve Scherf et al.
#
# Submitted via: libkcddb 0.21
#
DISCID=650a3508
DTITLE=Live in Reno, NV - 08.13.2005 - D1 - Los Lonely Boys
DYEAR=2005
DGENRE=
TTITLE0=Crazy Dream
TTITLE1=When She Walked Away
TTITLE2=Dime Mi Amor
TTITLE3=Hollywood
TTITLE4=Man To Beat
TTITLE5=Never Met A Woman Makes Me Feel Like You Do
TTITLE6=Don't The Memories Die?
TTITLE7=Nobody Else
EXTD=
EXTT0=
EXTT1=
EXTT2=
EXTT3=
EXTT4=
EXTT5=
EXTT6=
EXTT7=
PLAYORDER=
